<svg width="900" height="1197" viewBox="0 0 900 1197" fill="none" xmlns="http://www.w3.org/2000/svg">
<path d="M0 220H310.78V803.994C315.513 838.173 335.39 906.26 452.761 905.174C545.048 905.174 588.431 833.872 589.22 800.598C589.851 773.979 589.483 402.441 589.22 220H900L742.244 981.908C667.046 977.833 503.085 987.748 448.817 1060C415.425 1029.22 337.283 968.462 159.334 979.871L0 220Z" fill="#EE8029"/>
<path d="M380.102 771.034L445.169 220L519.9 772.087C521.833 785.244 495.548 809.138 449.679 809.98C403.81 810.822 378.169 784.718 380.102 771.034Z" fill="#EE8029"/>
<circle cx="449.087" cy="1145" r="51.3968" fill="#EE8029"/>
<path d="M0 175L450 0L900 175H520L445 260L380 176.34L0 175Z" fill="#EE8029"/>
</svg>
