<svg width="1500" height="1628" viewBox="0 0 1500 1628" fill="none" xmlns="http://www.w3.org/2000/svg">
<path d="M0 0H517.967V973.322C525.855 1030.29 558.983 1143.77 754.601 1141.96C908.414 1141.96 980.719 1023.12 982.033 967.664C983.085 923.298 982.472 304.069 982.033 0H1500L1237.07 1269.85C1111.74 1263.06 838.475 1279.58 748.028 1400C692.375 1348.69 562.139 1247.44 265.557 1266.45L0 0Z" fill="#EE8029"/>
<path d="M633.495 918.39L741.941 0L866.492 920.144C869.714 942.073 825.906 981.897 749.457 983.3C673.008 984.703 630.274 941.196 633.495 918.39Z" fill="#EE8029"/>
<circle cx="748.479" cy="1541.67" r="85.6613" fill="#EE8029"/>
</svg>
